<?xml version="1.0" encoding="UTF-8" standalone="no"?> <!-- Created with Vectornator for iOS (http://vectornator.io/) --><!DOCTYPE svg PUBLIC "-//W3C//DTD SVG 1.1//EN" "http://www.w3.org/Graphics/SVG/1.1/DTD/svg11.dtd">
<svg height="100%" style="fill-rule:nonzero;clip-rule:evenodd;stroke-linecap:round;stroke-linejoin:round;" xmlns:xlink="http://www.w3.org/1999/xlink" xmlns="http://www.w3.org/2000/svg" xml:space="preserve" width="100%" xmlns:vectornator="http://vectornator.io" version="1.1" viewBox="0 0 1024 1024">
<metadata>
<vectornator:setting key="DimensionsVisible" value="1"/>
<vectornator:setting key="PencilOnly" value="0"/>
<vectornator:setting key="SnapToPoints" value="0"/>
<vectornator:setting key="OutlineMode" value="0"/>
<vectornator:setting key="CMYKEnabledKey" value="0"/>
<vectornator:setting key="RulersVisible" value="1"/>
<vectornator:setting key="SnapToEdges" value="0"/>
<vectornator:setting key="GuidesVisible" value="1"/>
<vectornator:setting key="DisplayWhiteBackground" value="1"/>
<vectornator:setting key="doHistoryDisabled" value="0"/>
<vectornator:setting key="SnapToGuides" value="1"/>
<vectornator:setting key="TimeLapseWatermarkDisabled" value="0"/>
<vectornator:setting key="Units" value="Pixels"/>
<vectornator:setting key="DynamicGuides" value="0"/>
<vectornator:setting key="IsolateActiveLayer" value="0"/>
<vectornator:setting key="SnapToGrid" value="0"/>
</metadata>
<defs>
<linearGradient y1="484.113" id="LinearGradient" x1="321.671" y2="484.113" x2="750.868" gradientUnits="userSpaceOnUse" gradientTransform="matrix(0.824013 0.824013 -0.824013 0.824013 492.561 -352.36)">
<stop stop-color="#902dfa" offset="0"/>
<stop stop-color="#be2162" offset="1"/>
</linearGradient>
<linearGradient y1="484.113" id="LinearGradient_2" x1="321.671" y2="484.113" x2="750.868" gradientUnits="userSpaceOnUse" gradientTransform="matrix(0.824013 0.824013 -0.824013 0.824013 492.561 -352.36)">
<stop stop-color="#902dfa" offset="0"/>
<stop stop-color="#be2162" offset="1"/>
</linearGradient>
<linearGradient y1="484.113" id="LinearGradient_3" x1="321.671" y2="484.113" x2="750.868" gradientUnits="userSpaceOnUse" gradientTransform="matrix(0.824013 0.824013 -0.824013 0.824013 492.561 -352.36)">
<stop stop-color="#902dfa" offset="0"/>
<stop stop-color="#be2162" offset="1"/>
</linearGradient>
<linearGradient y1="484.113" id="LinearGradient_4" x1="321.671" y2="484.113" x2="750.868" gradientUnits="userSpaceOnUse" gradientTransform="matrix(0.824013 0.824013 -0.824013 0.824013 492.561 -352.36)">
<stop stop-color="#902dfa" offset="0"/>
<stop stop-color="#be2162" offset="1"/>
</linearGradient>
</defs>
<g id="Layer 1" vectornator:layerName="Layer 1">
<g opacity="1">
<path d="M570.837+167.979C520.961+167.939+467.145+203.171+437.306+233.01L201.524+468.792L221.181+488.448L201.524+508.104L191.712+498.26C186.281+492.83+177.486+492.83+172.056+498.26C166.625+503.691+166.625+512.486+172.056+517.917L309.587+655.448C315.018+660.879+323.812+660.879+329.243+655.448C334.674+650.017+334.674+641.254+329.243+635.823L319.399+625.979L339.056+606.323L358.712+625.979L594.493+390.198C637.896+346.795+692.718+252.673+633.774+193.729C615.354+175.309+593.508+167.997+570.837+167.979ZM568.931+196.104C578.519+195.913+587.765+197.425+596.337+201.167C570.622+205.143+520.479+218.486+467.587+263.292L456.962+252.667C479.822+229.806+527.379+196.931+568.931+196.104ZM432.649+253.542L573.962+394.885L556.649+412.167L415.337+270.854L432.649+253.542ZM240.806+508.104L319.399+586.698L299.774+606.323L221.181+527.76L240.806+508.104Z" opacity="1" fill="url(#LinearGradient)"/>
<path d="M487.315+283.041C548.114+232.53+597.367+229.26+624.065+226.525C649.293+272.337+603.938+341.458+574.835+370.561L487.315+283.041Z" opacity="1" fill="url(#LinearGradient_2)"/>
<path d="M820.549+423.009C845.777+468.82+800.418+537.938+771.315+567.041L683.795+479.521C744.594+429.01+793.847+425.74+820.549+423.009Z" opacity="1" fill="url(#LinearGradient_3)"/>
<path d="M767.306+364.448C717.43+364.408+663.613+399.671+633.774+429.51L397.993+665.292L417.649+684.917L397.993+704.573L388.181+694.76C382.75+689.33+373.955+689.33+368.524+694.76C363.094+700.191+363.094+708.955+368.524+714.385L506.056+851.948C511.486+857.379+520.281+857.379+525.712+851.948C531.143+846.517+531.143+837.722+525.712+832.292L515.899+822.479L535.524+802.823L555.181+822.479L790.962+586.698C834.364+543.295+889.218+449.142+830.274+390.198C811.854+371.778+789.976+364.466+767.306+364.448ZM765.399+392.573C774.989+392.383+784.264+393.893+792.837+397.635C767.114+401.604+716.952+414.99+664.056+459.792L653.431+449.167C676.291+426.306+723.844+393.396+765.399+392.573ZM628.314+450.042L769.626+591.354L752.345+608.635L611.032+467.323L628.314+450.042ZM437.306+704.573L515.899+783.167L496.243+802.823L417.649+724.229L437.306+704.573Z" opacity="1" fill="url(#LinearGradient_4)"/>
</g>
</g>
</svg>
